<?xml version="1.0" encoding="utf-8"?>
<!-- Generator: Adobe Illustrator 21.1.0, SVG Export Plug-In . SVG Version: 6.00 Build 0)  -->
<svg version="1.1" id="Layer_1" xmlns="http://www.w3.org/2000/svg" xmlns:xlink="http://www.w3.org/1999/xlink" x="0px" y="0px"
	 viewBox="0 0 104.8 42.9" style="enable-background:new 0 0 104.8 42.9;" xml:space="preserve">
<style type="text/css">
	.st0{enable-background:new    ;}
	.st1{fill:#684F40;}
	.st2{fill:none;}
</style>
<g id="BAKERY">
	<g class="st0">
		<path class="st1" d="M1.9,24.5V4.1h7c1.4,0,2.6,0.2,3.4,0.6c0.9,0.4,1.5,1.1,2,1.9c0.5,0.9,0.7,1.8,0.7,2.7c0,0.9-0.2,1.7-0.6,2.5
			c-0.4,0.8-1.1,1.4-2,1.9c1.1,0.4,2,1,2.6,1.9s0.9,1.9,0.9,3.1c0,1-0.2,1.9-0.6,2.7c-0.4,0.8-0.8,1.5-1.4,1.9s-1.2,0.8-2,1
			s-1.8,0.3-3,0.3H1.9z M4.4,12.7h4c1.1,0,1.9-0.1,2.3-0.2c0.6-0.2,1.1-0.5,1.4-1s0.5-1.1,0.5-1.8c0-0.7-0.1-1.3-0.4-1.8
			S11.5,7,10.9,6.8c-0.6-0.2-1.5-0.3-2.8-0.3H4.4V12.7z M4.4,22.1H9c0.8,0,1.4,0,1.7-0.1c0.6-0.1,1-0.3,1.4-0.6s0.7-0.6,0.9-1.1
			s0.4-1.1,0.4-1.7c0-0.8-0.2-1.4-0.5-2c-0.4-0.6-0.8-1-1.5-1.2c-0.6-0.2-1.5-0.3-2.7-0.3H4.4V22.1z"/>
		<path class="st1" d="M17.3,24.5l7.1-20.5h2.7l7.6,20.5h-2.8l-2.2-6.2H22l-2,6.2H17.3z M22.7,16.1H29L27,10.5
			c-0.6-1.7-1-3.1-1.3-4.2c-0.2,1.3-0.6,2.6-1,3.9L22.7,16.1z"/>
		<path class="st1" d="M36.6,24.5V4.1h2.5v10.2l9.2-10.2h3.3l-7.8,8.3L52,24.5h-3.3l-6.6-10.4l-3,3.3v7.1H36.6z"/>
		<path class="st1" d="M54.1,24.5V4.1h13.5v2.4h-11v6.3h10.3v2.4H56.5v7H68v2.4H54.1z"/>
		<path class="st1" d="M71.4,24.5V4.1h8.3c1.7,0,2.9,0.2,3.8,0.6c0.9,0.4,1.6,1,2.1,1.9s0.8,2,0.8,3.1c0,1.5-0.4,2.7-1.3,3.7
			c-0.9,1-2.2,1.6-4,1.9c0.7,0.3,1.1,0.7,1.5,1c0.7,0.7,1.4,1.6,2,2.7l3.2,5.6h-3.1l-2.5-4.3c-0.7-1.2-1.3-2.2-1.8-2.8
			s-0.9-1.1-1.3-1.4c-0.4-0.3-0.7-0.4-1.1-0.5c-0.3-0.1-0.7-0.1-1.4-0.1h-2.9v9.1H71.4z M73.9,13.1h5.3c1.1,0,2-0.1,2.6-0.4
			c0.6-0.3,1.1-0.7,1.4-1.2c0.3-0.6,0.5-1.2,0.5-1.8c0-1-0.3-1.8-1-2.4c-0.6-0.6-1.6-0.9-3-0.9h-5.9V13.1z"/>
		<path class="st1" d="M94.9,24.5v-8.7L87.7,4.1h3l3.7,6.2c0.7,1.2,1.3,2.3,1.9,3.5c0.6-1.1,1.2-2.3,2-3.6l3.6-6h2.9l-7.4,11.8v8.7
			H94.9z"/>
	</g>
</g>
<g id="_x7E__EST_2014__x7E_">
	<rect x="5.8" y="32.5" class="st2" width="53" height="9.2"/>
	<g class="st0">
		<path class="st1" d="M12.4,36.9v-1c0.3-0.4,0.8-0.6,1.4-0.6c0.2,0,0.4,0,0.6,0.1c0.2,0.1,0.5,0.2,0.9,0.3c0.2,0.1,0.4,0.2,0.5,0.2
			s0.2,0,0.3,0c0.2,0,0.4-0.1,0.7-0.2s0.4-0.3,0.6-0.5v1c-0.2,0.2-0.4,0.3-0.6,0.4s-0.5,0.1-0.7,0.1c-0.2,0-0.4,0-0.6-0.1
			s-0.5-0.2-0.8-0.3s-0.7-0.3-1-0.3c-0.2,0-0.4,0-0.6,0.1C12.9,36.5,12.7,36.7,12.4,36.9z"/>
		<path class="st1" d="M21.4,39.7v-7.2h5.2v0.8h-4.2v2.2h4v0.8h-4v2.4h4.4v0.8H21.4z"/>
		<path class="st1" d="M27.7,37.4l0.9-0.1c0,0.4,0.1,0.7,0.3,0.9c0.2,0.2,0.4,0.4,0.7,0.6c0.3,0.1,0.7,0.2,1.1,0.2
			c0.4,0,0.7-0.1,1-0.2s0.5-0.3,0.6-0.4c0.1-0.2,0.2-0.4,0.2-0.6c0-0.2-0.1-0.4-0.2-0.6c-0.1-0.2-0.3-0.3-0.6-0.4
			c-0.2-0.1-0.6-0.2-1.3-0.3c-0.7-0.2-1.1-0.3-1.4-0.4c-0.3-0.2-0.6-0.4-0.8-0.7C28,35,28,34.7,28,34.3c0-0.4,0.1-0.7,0.3-1
			c0.2-0.3,0.5-0.6,0.9-0.7s0.8-0.2,1.3-0.2c0.5,0,1,0.1,1.4,0.3c0.4,0.2,0.7,0.4,0.9,0.8s0.3,0.7,0.4,1.1l-0.9,0.1
			c0-0.5-0.2-0.8-0.5-1s-0.7-0.3-1.2-0.3c-0.6,0-1,0.1-1.3,0.3c-0.3,0.2-0.4,0.5-0.4,0.8c0,0.3,0.1,0.5,0.3,0.6
			c0.2,0.2,0.7,0.3,1.4,0.5c0.8,0.2,1.3,0.3,1.6,0.5c0.4,0.2,0.7,0.4,0.9,0.7c0.2,0.3,0.3,0.6,0.3,1c0,0.4-0.1,0.7-0.3,1.1
			c-0.2,0.3-0.5,0.6-0.9,0.8c-0.4,0.2-0.9,0.3-1.4,0.3c-0.6,0-1.2-0.1-1.6-0.3s-0.8-0.5-1-0.9C27.8,38.3,27.7,37.8,27.7,37.4z"/>
		<path class="st1" d="M36.5,39.7v-6.3h-2.4v-0.8h5.7v0.8h-2.4v6.3H36.5z"/>
		<path class="st1" d="M47.7,38.8v0.8h-4.7c0-0.2,0-0.4,0.1-0.6c0.1-0.3,0.3-0.6,0.6-1c0.3-0.3,0.6-0.7,1.1-1.1
			c0.8-0.6,1.3-1.1,1.6-1.5c0.3-0.4,0.4-0.7,0.4-1.1c0-0.3-0.1-0.6-0.4-0.9c-0.2-0.2-0.6-0.4-1-0.4c-0.4,0-0.8,0.1-1,0.4
			S44,34.2,44,34.6l-0.9-0.1c0.1-0.7,0.3-1.2,0.7-1.5c0.4-0.4,0.9-0.5,1.6-0.5c0.7,0,1.2,0.2,1.6,0.6s0.6,0.9,0.6,1.4
			c0,0.3-0.1,0.6-0.2,0.8s-0.3,0.6-0.6,0.9c-0.3,0.3-0.7,0.7-1.4,1.3c-0.5,0.4-0.9,0.7-1,0.9c-0.1,0.2-0.3,0.3-0.4,0.5H47.7z"/>
		<path class="st1" d="M48.6,36.1c0-0.8,0.1-1.5,0.3-2c0.2-0.5,0.4-0.9,0.8-1.2c0.3-0.3,0.8-0.4,1.3-0.4c0.4,0,0.7,0.1,1,0.2
			c0.3,0.2,0.5,0.4,0.7,0.7c0.2,0.3,0.3,0.6,0.4,1.1c0.1,0.4,0.2,1,0.2,1.7c0,0.8-0.1,1.5-0.3,2c-0.2,0.5-0.4,0.9-0.8,1.2
			c-0.3,0.3-0.8,0.4-1.3,0.4c-0.7,0-1.2-0.2-1.6-0.7C48.8,38.4,48.6,37.5,48.6,36.1z M49.5,36.1c0,1.2,0.1,2,0.4,2.3
			c0.3,0.4,0.6,0.6,1,0.6c0.4,0,0.7-0.2,1-0.6c0.3-0.4,0.4-1.2,0.4-2.3c0-1.2-0.1-2-0.4-2.3c-0.3-0.4-0.6-0.6-1-0.6
			c-0.4,0-0.7,0.2-1,0.5C49.6,34.1,49.5,35,49.5,36.1z"/>
		<path class="st1" d="M57.5,39.7h-0.9v-5.6c-0.2,0.2-0.5,0.4-0.8,0.6c-0.3,0.2-0.7,0.4-0.9,0.5v-0.8c0.5-0.2,0.9-0.5,1.3-0.8
			c0.4-0.3,0.6-0.6,0.8-1h0.6V39.7z"/>
		<path class="st1" d="M62.5,39.7v-1.7h-3.1v-0.8l3.3-4.6h0.7v4.6h1v0.8h-1v1.7H62.5z M62.5,37.1v-3.2l-2.2,3.2H62.5z"/>
		<path class="st1" d="M68.1,36.9v-1c0.3-0.4,0.8-0.6,1.4-0.6c0.2,0,0.4,0,0.6,0.1c0.2,0.1,0.5,0.2,0.9,0.3c0.2,0.1,0.4,0.2,0.5,0.2
			c0.1,0,0.2,0,0.3,0c0.2,0,0.4-0.1,0.7-0.2c0.2-0.1,0.4-0.3,0.6-0.5v1c-0.2,0.2-0.4,0.3-0.6,0.4c-0.2,0.1-0.5,0.1-0.7,0.1
			c-0.2,0-0.4,0-0.6-0.1c-0.2,0-0.5-0.2-0.8-0.3c-0.4-0.2-0.7-0.3-1-0.3c-0.2,0-0.4,0-0.6,0.1C68.6,36.5,68.3,36.7,68.1,36.9z"/>
	</g>
</g>
</svg>
